:SAMPLES-PER-SECOND 30
:FULLY-SPECIFIED
:DEGREES
1689
root  51.8156 38.9 -32.1811 -156.441 -84.791 155.396
RightUpLeg  4.76351 -13.0367 -8.46091
RightLeg  12.6856 -3.72916 1.50946
RightFoot  -13.334 -0.0108624 4.59528
RightToes  5.82063e-011 0 -3.6325e-017
Spine  4.69394 0.206827 10.1131
Spine1  6.94827 1.49793 -4.11831
HEad  -27.3522 0.740167 -10.75
LeftShoulder1  -0.231406 4.11122 -31.9616
LeftArm  -3.61447 14.6152 -40.0544
LeftForeArm  17.2071 -16.0921 -5.45484
LeftHand  -0.0444159 6.19341 -1.24495
RightShoulder  -0.888157 -5.99491 29.0441
RightArm  13.7704 6.31984 41.686
RightForeArm  5.59799 15.3839 5.30728
RightHand  -0.172255 3.45851 -2.50162
LeftUpLeg  -18.4633 13.5874 -2.84254
LeftLeg  14.64 -5.6164 -2.3767
LeftFoot  -2.4949 0.450672 -5.63933
LeftToes  -1.20963e-009 8.6283e-011 2.04439e-011
1690
root  51.0918 38.9474 -32.2604 -149.073 -85.5228 148.591
RightUpLeg  6.43382 -12.518 -8.47774
RightLeg  10.7041 -5.03781 1.29531
RightFoot  -13.2209 -0.00668281 5.06466
RightToes  5.82063e-011 0 -3.6325e-017
Spine  3.85525 0.329644 9.06464
Spine1  7.73013 1.48241 -4.05753
HEad  -27.9471 0.6208 -10.3264
LeftShoulder1  -0.277189 4.22389 -32.3721
LeftArm  -4.22824 14.596 -39.8696
LeftForeArm  17.6498 -14.7215 -5.85188
LeftHand  -0.055149 7.0485 -1.07626
RightShoulder  -0.745506 -5.63285 28.3822
RightArm  13.612 6.68839 41.8257
RightForeArm  5.71167 14.9088 5.41536
RightHand  -0.180979 4.2205 -2.4631
LeftUpLeg  -16.4792 5.49486 -0.381445
LeftLeg  2.63043 5.47616 -2.58989
LeftFoot  -0.638772 0.506692 -5.36231
LeftToes  -1.20963e-009 8.6283e-011 2.04439e-011
1691
root  50.2913 38.8953 -32.2731 -146.413 -86.0117 146.459
RightUpLeg  7.87072 -12.2087 -8.38483
RightLeg  9.47659 -5.68759 1.14943
RightFoot  -13.6089 0.0249865 5.89763
RightToes  5.82063e-011 0 -3.6325e-017
Spine  3.50236 0.497449 8.32354
Spine1  7.71968 1.59225 -4.1087
HEad  -27.7775 0.444019 -9.86354
LeftShoulder1  -0.285695 4.24673 -32.3042
LeftArm  -5.78181 15.1616 -39.9634
LeftForeArm  19.1062 -13.0236 -6.06779
LeftHand  -0.0664545 7.44979 -1.48375
RightShoulder  -0.788522 -5.74451 28.559
RightArm  12.8595 7.07486 41.5235
RightForeArm  6.47922 14.0416 5.4929
RightHand  -0.11504 4.19967 -1.67034
LeftUpLeg  -15.7757 2.80171 -0.0733286
LeftLeg  -5.68619 12.0377 -2.00381
LeftFoot  -0.155877 0.54324 -5.56267
LeftToes  -1.20963e-009 8.6283e-011 2.04439e-011
1692
root  49.3715 38.7026 -32.1897 -147.775 -86.8138 147.929
RightUpLeg  9.52151 -12.4424 -8.51044
RightLeg  9.51017 -5.55953 1.39425
RightFoot  -14.6029 0.0964252 6.8675
RightToes  5.82063e-011 0 -3.6325e-017
Spine  3.22922 0.62405 8.45069
Spine1  7.82909 1.75231 -4.36452
HEad  -27.9508 -0.776049 -8.91247
LeftShoulder1  -0.150645 3.9025 -31.6725
LeftArm  -7.52087 15.5288 -40.4252
LeftForeArm  21.7099 -10.8881 -6.13043
LeftHand  -0.0766533 6.54073 -3.55184
RightShoulder  -0.92821 -6.09573 29.227
RightArm  12.1856 7.01883 41.0856
RightForeArm  6.75399 13.6562 5.45521
RightHand  -0.164084 3.27489 -2.44945
LeftUpLeg  -16.0681 2.6467 0.148813
LeftLeg  -7.6891 16.7181 -2.2649
LeftFoot  -1.5584 0.524232 -5.99715
LeftToes  -1.20963e-009 8.6283e-011 2.04439e-011
1693
root  48.4318 38.5693 -32.0876 -134.445 -87.6492 134.359
RightUpLeg  11.8011 -12.712 -9.2319
RightLeg  9.16694 -5.48336 1.38117
RightFoot  -15.0684 0.172046 8.42192
RightToes  5.82063e-011 0 -3.6325e-017
Spine  3.52073 0.36802 7.72033
Spine1  7.96633 1.7338 -4.98484
HEad  -28.0821 -1.35225 -7.38421
LeftShoulder1  -0.13566 3.86986 -30.9352
LeftArm  -8.35317 15.6254 -40.5169
LeftForeArm  23.0459 -9.13356 -6.13344
LeftHand  -0.0894195 6.80936 -3.83969
RightShoulder  -1.0046 -6.25229 29.9985
RightArm  10.932 6.57307 40.8024
RightForeArm  6.46462 12.8221 5.39667
RightHand  -0.241344 2.78403 -3.6456
LeftUpLeg  -16.7343 3.32418 -0.2393
LeftLeg  -4.76573 18.4524 -2.59168
LeftFoot  1.49501 0.346066 -3.26579
LeftToes  -1.20963e-009 8.6283e-011 2.04439e-011
1694
root  47.3374 38.4271 -31.9239 -119.078 -87.4232 118.267
RightUpLeg  14.7379 -13.4725 -11.1822
RightLeg  8.93578 -4.25405 1.40695
RightFoot  -15.5384 0.273154 10.2949
RightToes  5.82063e-011 0 -3.6325e-017
Spine  3.54778 0.445564 6.29538
Spine1  8.49337 1.95356 -5.24967
HEad  -27.6568 -1.49268 -6.33087
LeftShoulder1  -0.160616 3.93077 -31.5379
LeftArm  -8.38614 15.569 -39.1966
LeftForeArm  23.2328 -8.02837 -6.13037
LeftHand  -0.0869403 6.9289 -3.56248
RightShoulder  -0.919538 -6.03045 29.8122
RightArm  9.00446 5.13942 41.1777
RightForeArm  8.10161 11.7635 5.07243
RightHand  -0.182187 3.67597 -2.59472
LeftUpLeg  -17.3217 3.56817 -1.23692
LeftLeg  0.194563 19.091 -1.73391
LeftFoot  5.48168 -0.325192 1.94081
LeftToes  -1.20963e-009 8.6283e-011 2.04439e-011
1695
root  46.1097 38.2753 -31.6746 -111.538 -86.4972 109.968
RightUpLeg  17.2622 -14.328 -13.8033
RightLeg  9.79413 -2.44316 0.881063
RightFoot  -15.7888 0.399556 13.0138
RightToes  5.82063e-011 0 -3.6325e-017
Spine  3.06507 0.640515 4.91017
Spine1  9.05713 2.38308 -6.21717
HEad  -25.7669 -2.38616 -5.76479
LeftShoulder1  -0.214192 4.07251 -31.428
LeftArm  -8.46397 16.2066 -38.1963
LeftForeArm  22.6526 -7.60943 -6.05447
LeftHand  -0.134871 8.82006 -2.73216
RightShoulder  -0.926184 -6.03775 29.9713
RightArm  8.59171 3.79714 41.4839
RightForeArm  8.48133 10.221 5.15733
RightHand  -0.15984 4.274 -2.19143
LeftUpLeg  -17.1398 3.56284 -2.52117
LeftLeg  4.17508 18.4236 -0.947674
LeftFoot  9.14285 -0.988272 5.24059
LeftToes  -1.20963e-009 8.6283e-011 2.04439e-011
1696
root  44.9285 38.1734 -31.3852 -97.5307 -85.3708 95.3731
RightUpLeg  18.9135 -15.1453 -16.6842
RightLeg  12.0488 -0.900408 0.292321
RightFoot  -15.4132 0.488825 16.5928
RightToes  5.82063e-011 0 -3.6325e-017
Spine  2.98248 0.566189 3.14466
Spine1  8.83928 2.35935 -7.04145
HEad  -24.6272 -2.46729 -4.89304
LeftShoulder1  -0.310783 4.31013 -32.4445
LeftArm  -8.21245 16.2828 -36.1556
LeftForeArm  21.5168 -7.32176 -6.04854
LeftHand  -0.124559 9.06643 -2.23575
RightShoulder  -0.945817 -6.0753 30.1915
RightArm  7.82433 2.20471 42.0112
RightForeArm  10.4813 8.67454 4.95131
RightHand  -0.109037 3.49576 -1.68875
LeftUpLeg  -17.4025 4.54674 -4.50649
LeftLeg  9.52839 16.7622 -0.123321
LeftFoot  7.44036 -1.32175 7.68507
LeftToes  -1.20963e-009 8.6283e-011 2.04439e-011
1697
root  43.7901 38.0965 -31.0781 -82.534 -83.8068 79.5608
RightUpLeg  19.3586 -14.2489 -18.9695
RightLeg  16.7367 -1.5972 -0.77765
RightFoot  -14.2149 0.441738 21.9419
RightToes  5.82063e-011 0 -3.6325e-017
Spine  3.1965 0.485993 1.63381
Spine1  8.99932 2.47104 -8.53599
HEad  -23.0287 -4.30147 -4.98412
LeftShoulder1  -0.279279 4.23737 -31.9462
LeftArm  -8.29505 15.8101 -35.8621
LeftForeArm  20.5823 -6.80581 -5.94045
LeftHand  -0.114942 8.73572 -2.2367
RightShoulder  -1.07046 -6.37663 30.7233
RightArm  6.68218 0.0645399 42.7352
RightForeArm  11.7381 7.63558 4.47239
RightHand  -0.0643999 4.02224 -1.07097
LeftUpLeg  -16.5283 5.80282 -7.31569
LeftLeg  13.1389 14.3559 1.00705
LeftFoot  4.67134 -1.1132 7.71292
LeftToes  -1.20963e-009 8.6283e-011 2.04439e-011
1698
root  42.7502 38.1134 -30.7581 -79.0218 -82.9624 75.7718
RightUpLeg  17.0315 -10.6414 -19.0012
RightLeg  23.8105 -4.04232 -2.17877
RightFoot  -10.5122 -0.242004 24.9122
RightToes  5.82063e-011 0 -3.6325e-017
Spine  3.41299 0.937758 0.880047
Spine1  8.78332 2.91238 -9.39376
HEad  -21.8901 -5.64926 -5.64662
LeftShoulder1  -0.225271 4.09425 -32.023
LeftArm  -8.87016 15.4288 -36.0197
LeftForeArm  20.1958 -7.10284 -5.64289
LeftHand  -0.105751 7.98291 -2.60517
RightShoulder  -1.07534 -6.40945 30.4557
RightArm  6.43506 -2.24533 43.2816
RightForeArm  11.7749 7.10665 4.32561
RightHand  -0.0962934 3.02346 -1.55521
LeftUpLeg  -15.295 5.95105 -8.54395
LeftLeg  14.8038 13.8343 1.19877
LeftFoot  2.42983 -1.01758 8.27692
LeftToes  -1.20963e-009 8.6283e-011 2.04439e-011
1699
root  41.7241 38.2434 -30.4321 -79.1938 -82.4791 75.6362
RightUpLeg  12.3153 -6.58942 -18.454
RightLeg  33.8976 -4.9591 -3.84784
RightFoot  -1.9517 -1.43799 18.6357
RightToes  5.82063e-011 0 -3.6325e-017
Spine  3.52228 1.08701 0.168712
Spine1  8.78447 3.03955 -9.54202
HEad  -21.4454 -5.76583 -6.43889
LeftShoulder1  -0.324061 4.3512 -32.1088
LeftArm  -9.11645 14.9859 -36.5081
LeftForeArm  18.8941 -8.21355 -5.61256
LeftHand  -0.0959624 8.33104 -1.85579
RightShoulder  -0.936529 -6.09097 29.6281
RightArm  7.19267 -2.93493 44.4446
RightForeArm  13.4483 6.3264 4.59234
RightHand  -0.046057 2.41973 -0.868723
LeftUpLeg  -13.1035 5.07668 -9.10847
LeftLeg  14.7903 14.6935 1.05769
LeftFoot  0.67047 -0.850775 8.03276
LeftToes  -1.20963e-009 8.6283e-011 2.04439e-011
1700
root  40.798 38.2906 -30.185 -81.4717 -81.9504 77.4966
RightUpLeg  6.74547 -2.29273 -17.7375
RightLeg  43.8679 -3.98262 -4.2835
RightFoot  7.70125 -1.7622 10.354
RightToes  5.82063e-011 0 -3.6325e-017
Spine  3.89908 1.08569 -1.32477
Spine1  8.99391 2.84671 -9.27881
HEad  -21.6281 -5.11935 -6.69805
LeftShoulder1  -0.343912 4.40135 -32.1798
LeftArm  -8.53881 14.5993 -36.7958
LeftForeArm  17.3572 -9.91891 -5.8124
LeftHand  -0.0768272 8.08144 -1.32618
RightShoulder  -0.891449 -5.97464 29.4793
RightArm  8.28707 -2.23524 45.1386
RightForeArm  17.6232 6.542 4.92331
RightHand  0.0753418 1.69227 1.11601
LeftUpLeg  -11.1576 4.78495 -9.67366
LeftLeg  15.1447 15.135 0.849251
LeftFoot  -1.1875 -0.687407 7.80626
LeftToes  -1.20963e-009 8.6283e-011 2.04439e-011
